Coordinates
version=1
nRows=19
nColumns=36
inDegrees=yes

Units are S.I. units (second, meters, Newtons, ...)
If the header above contains a line with 'inDegrees', this indicates whether rotational values are in degrees (yes) or radians (no).

endheader
time	pelvis_tilt	pelvis_list	pelvis_rotation	pelvis_tx	pelvis_ty	pelvis_tz	hip_flexion_r	hip_adduction_r	hip_rotation_r	knee_angle_r	knee_angle_r_beta	ankle_angle_r	subtalar_angle_r	mtp_angle_r	hip_flexion_l	hip_adduction_l	hip_rotation_l	knee_angle_l	knee_angle_l_beta	ankle_angle_l	subtalar_angle_l	mtp_angle_l	lumbar_extension	lumbar_bending	lumbar_rotation	arm_flex_r	arm_add_r	arm_rot_r	elbow_flex_r	pro_sup_r	arm_flex_l	arm_add_l	arm_rot_l	elbow_flex_l	pro_sup_l
      5.15000000	    -42.38807184	     -5.66142809	      1.96058561	      0.54498854	      0.88315739	     -0.15437555	     61.68631597	      3.15225302	      1.80567624	     32.56861162	      0.56842951	     -1.86168717	    -22.76848791	     -7.49999987	     62.11929825	     -6.45115707	      6.02111931	     38.58160435	      0.67337603	      4.05893810	    -10.33905111	     -7.49999987	     -7.41072477	     -1.82984572	     -3.22625947	      2.76263571	     -6.79265288	    365.58502314	     34.61256929	     83.97838331	      0.29183791	     -4.17461490	    -15.31074118	     36.56681578	     82.56583596
      5.15416670	    -42.26787688	     -5.61340998	      1.97809221	      0.54538632	      0.88468633	     -0.15430737	     61.34920358	      3.08783279	      1.74150236	     32.24758165	      0.56282648	     -1.92432044	    -22.84229049	     -7.49999987	     61.68674009	     -6.43545255	      5.96820143	     38.13253924	      0.66553836	      4.05248510	    -10.40443966	     -7.49999987	     -7.42298526	     -1.83296137	     -3.08145548	      2.49390734	     -6.60418167	    364.96541091	     34.68882893	     83.48146174	      0.32017404	     -4.13670778	    -15.26530326	     36.67549117	     82.02165598
      5.15833330	    -42.18013975	     -5.55671203	      1.95782033	      0.54529048	      0.88465071	     -0.15333635	     61.16133093	      3.03014008	      1.53747691	     32.14085355	      0.56096372	     -1.06959208	    -22.05886155	     -7.49999987	     61.36305413	     -6.46283410	      5.97748025	     37.78057330	      0.65939540	      4.29882399	    -10.10758992	     -7.49999987	     -7.56243518	     -1.96116783	     -2.98045678	      2.31069060	     -6.47566912	    364.72825363	     35.24905587	     82.91988801	      0.18057847	     -4.15064194	    -15.25868526	     37.19445682	     81.48088677
      5.16250000	    -42.11131633	     -5.48876634	      1.93701296	      0.54423965	      0.88287507	     -0.15240505	     61.05456164	      3.11165072	      1.77094325	     32.01501999	      0.55876751	     -1.70193720	    -22.87844060	     -7.49999987	     61.19883073	     -6.50162303	      5.88672389	     37.58232386	      0.65593529	      4.01573170	    -10.28169988	     -7.49999987	     -7.46271416	     -2.11745515	     -2.95703662	      2.50185375	     -6.36486945	    365.29935240	     34.56322628	     82.89648611	      0.37122551	     -4.25716664	    -15.20636211	     36.65300406	     81.43381306
      5.16666670	    -41.79218165	     -5.40285383	      1.96882044	      0.54648643	      0.88708704	     -0.15338879	     60.54124397	      3.06381274	      1.80896297	     31.77296153	      0.55454279	     -1.58458082	    -22.64649415	     -7.49999987	     60.55040611	     -6.45827379	      5.76476170	     37.10321254	      0.64757322	      4.01649000	    -10.09567486	     -7.49999987	     -7.82934836	     -2.21354152	     -3.12455194	      2.87161117	     -6.38591748	    366.34942444	     34.19280241	     83.48685713	      0.43712315	     -4.33647901	    -15.11492051	     36.59574558	     82.01101690
      5.17083330	    -41.83254461	     -5.42608729	      1.98799950	      0.54641998	      0.88295973	     -0.15437497	     60.59494023	      3.05835226	      1.84419210	     31.86017073	      0.55606488	     -1.56207785	    -22.59659993	     -7.49999987	     60.71125186	     -6.39441530	      5.81751003	     37.32846246	      0.65150457	      4.08035868	    -10.25439574	     -7.49999987	     -7.69529138	     -2.15696188	     -2.87398194	      2.53109162	     -6.32336348	    365.54840327	     34.61395211	     85.32752372	      0.60467641	     -4.29347643	    -14.79425486	     36.41185759	     82.91523170
      5.17500000	    -41.85756934	     -5.44818268	      1.98646881	      0.54509372	      0.88301586	     -0.15310786	     60.74512459	      3.07904536	      1.91812393	     32.08889578	      0.56005688	     -1.40809210	    -22.44701577	     -7.49999987	     60.91763379	     -6.36384393	      5.96366333	     37.64094684	      0.65695846	      4.09336950	    -10.45940285	     -7.49999987	     -7.67401373	     -2.10703117	     -3.06909762	      2.79038590	     -6.27468632	    365.83840275	     34.28893746	     85.00561290	      0.52855589	     -4.19345802	    -15.25816163	     36.63236478	     82.73122447
      5.17916670	    -41.78544756	     -5.38069013	      1.95478996	      0.54533179	      0.88574674	     -0.15398217	     60.66003769	      3.02350935	      1.98385843	     32.07977263	      0.55989766	     -1.27702997	    -22.25646539	     -7.49999987	     60.73262681	     -6.30734776	      5.97817910	     37.48425710	      0.65422370	      4.10199571	    -10.56436938	     -7.49999987	     -7.73858464	     -2.12370853	     -3.05432032	      2.84498401	     -6.22302512	    366.03899469	     34.29483451	     83.36544763	      0.57178623	     -4.14051248	    -15.24394848	     36.52535375	     81.44145513
      5.18333330	    -41.80179404	     -5.37229322	      1.96035819	      0.54435651	      0.88328578	     -0.15383408	     60.75029624	      2.97064359	      1.91140591	     32.14934728	      0.56111196	     -1.11924503	    -22.05207536	     -7.49999987	     60.83781160	     -6.27488607	      6.06562760	     37.60241508	      0.65628595	      4.13407149	    -10.76820942	     -7.49999987	     -7.70045022	     -2.05758708	     -3.00923378	      2.84249827	     -6.25976549	    366.16837536	     34.34005905	     82.85615643	      0.54993720	     -4.05546317	    -15.25187269	     36.64948981	     81.10226036
      5.18750000	    -41.69919937	     -5.35301520	      1.99332535	      0.54526182	      0.88469000	     -0.15316095	     60.65809627	      2.89897289	      1.73403531	     32.19311638	      0.56187588	     -0.53447071	    -21.47005975	     -7.49999987	     60.64975362	     -6.27768450	      6.08946145	     37.48017691	      0.65415249	      4.32255588	    -10.54666156	     -7.49999987	     -7.89962746	     -2.11702018	     -2.91219437	      2.60673336	     -6.09406591	    365.28586129	     34.93189522	     82.38889515	      0.51905635	     -4.01626304	    -15.19601584	     37.15978293	     80.68110102
      5.19166670	    -41.69891176	     -5.33960313	      2.01292337	      0.54511950	      0.88277615	     -0.15222083	     60.67868367	      2.95186341	      1.86513054	     32.21618205	      0.56227845	     -1.19216718	    -22.37504601	     -7.49999987	     60.74261223	     -6.27421183	      6.20356762	     37.63621163	      0.65687581	      4.16186609	    -10.60473853	     -7.49999987	     -7.82368987	     -2.17925683	     -2.87327727	      2.63252758	     -5.94913170	    365.34306267	     34.59110084	     82.37481298	      0.62666885	     -4.05231013	    -15.07551807	     36.76568055	     80.67268013
      5.19583330	    -41.74758418	     -5.37101483	      2.05709885	      0.54582189	      0.88450985	     -0.15310588	     60.64948572	      2.91941160	      1.78865912	     32.09657346	      0.56019089	     -1.06325671	    -22.07977124	     -7.49999987	     60.74342590	     -6.27690306	      6.24265998	     37.56217049	      0.65558355	      4.19325771	    -10.44530270	     -7.49999987	     -7.72493834	     -2.18489855	     -2.96825724	      2.75718799	     -5.96209777	    366.06355475	     34.38716809	     82.39886481	      0.66449203	     -4.10609729	    -14.90884956	     36.50370492	     80.78774120
      5.20000000	    -41.59659906	     -5.34843083	      2.10079097	      0.54711293	      0.88497153	     -0.15426214	     60.31701573	      2.85577780	      1.71764614	     31.92063302	      0.55712015	     -0.90687538	    -21.95217334	     -7.49999987	     60.39683660	     -6.24971206	      6.22893145	     37.34632703	      0.65181637	      4.23242080	    -10.33384704	     -7.49999987	     -7.82349025	     -2.24574993	     -3.08020063	      2.90115496	     -5.86155977	    366.05028697	     34.14413401	     86.01385890	      0.60467378	     -4.03038236	    -15.70372458	     36.50562864	     86.32551268
      5.20416670	    -41.58986961	     -5.31473287	      2.18446876	      0.54726452	      0.88346782	     -0.15427569	     60.25913156	      2.75701445	      1.65584288	     31.91816481	      0.55707707	     -0.73161969	    -21.92322349	     -7.49999987	     60.30585855	     -6.15668098	      6.16943020	     37.31094053	      0.65119876	      4.29164279	    -10.43057183	     -7.49999987	     -7.78677023	     -2.24028261	     -3.08023151	      2.83243628	     -5.84176676	    366.23189236	     34.10714531	     85.12633385	      0.60644963	     -4.03038145	    -15.41228038	     36.44433102	     85.46584876
      5.20833330	    -41.49457858	     -5.35750422	      2.21332731	      0.54690595	      0.88478838	     -0.15322431	     60.05858738	      2.83205077	      1.74819923	     31.71235250	      0.55348496	     -0.94749850	    -22.16505895	     -7.49999987	     60.11441965	     -6.19268178	      6.18918288	     37.14812728	      0.64835713	      4.26015840	    -10.36832522	     -7.49999987	     -7.92969951	     -2.22444267	     -2.83364344	      2.65718904	     -5.60561453	    365.07568163	     34.43348852	     83.97685618	      0.71086710	     -4.01369854	    -15.02776220	     36.54754359	     84.17687652
      5.21250000	    -41.51237277	     -5.38047500	      2.22250191	      0.54603306	      0.88483562	     -0.15346623	     60.09863697	      2.84208421	      1.72278914	     31.73294577	      0.55384439	     -0.59193965	    -21.84659621	     -7.49999987	     60.14102387	     -6.23135916	      6.05031983	     37.11532323	      0.64778459	      4.51070299	    -10.04890196	     -7.49999987	     -7.81197911	     -2.21108293	     -2.93455381	      2.94889931	     -5.82013817	    366.53456025	     33.97689140	     84.42484822	      0.79552996	     -4.23599125	    -14.28561940	     36.03678644	     84.53221209
      5.21666670	    -41.46366164	     -5.40128051	      2.20625727	      0.54737105	      0.88441370	     -0.15417132	     60.00293678	      2.86356896	      1.72704665	     31.70569633	      0.55336879	     -0.67156767	    -22.12426306	     -7.49999987	     60.04913005	     -6.25710805	      5.98444880	     37.09729281	      0.64746990	      4.50373862	    -10.13982669	     -7.49999987	     -7.83564758	     -2.18088000	     -2.91754816	      2.90922313	     -5.71387464	    366.30289684	     34.05974477	     84.09826531	      0.81367068	     -4.18498468	    -14.12846369	     35.99103825	     84.17597586
      5.22083330	    -41.42821711	     -5.38180867	      2.19205094	      0.54802485	      0.88352736	     -0.15522440	     59.92947638	      2.79782103	      1.68420191	     31.72040458	      0.55362550	     -0.47159645	    -22.02977387	     -7.49999987	     59.98338757	     -6.19738827	      5.95137513	     37.13512667	      0.64813023	      4.63510441	    -10.16264274	     -7.49999987	     -7.75766319	     -2.19229631	     -2.92999631	      3.00490358	     -5.76892758	    366.56514059	     33.96855001	     83.75054867	      0.80229268	     -4.14399428	    -14.00499953	     35.82051631	     83.82002232
      5.22500000	    -41.30408722	     -5.31831615	      2.16778213	      0.54795945	      0.88490259	     -0.15550764	     59.70794143	      2.73823147	      1.70774542	     31.62117158	      0.55189356	     -0.37821279	    -22.02404474	     -7.49999987	     59.72876646	     -6.12849277	      5.90831061	     37.01262982	      0.64599226	      4.72906239	    -10.10514975	     -7.49999987	     -7.82894644	     -2.22797856	     -2.88901003	      3.09904899	     -5.79599714	    366.80273248	     33.84957035	     83.77308834	      0.85457162	     -4.24422260	    -13.52269851	     35.65537764	     83.69433266
